<?xml version="1.0" encoding="utf-8"?>
<!-- Generator: Adobe Illustrator 25.4.1, SVG Export Plug-In . SVG Version: 6.00 Build 0)  -->
<svg version="1.1" id="레이어_1" xmlns="http://www.w3.org/2000/svg" xmlns:xlink="http://www.w3.org/1999/xlink" x="0px"
	 y="0px" viewBox="0 0 16 16" style="enable-background:new 0 0 16 16;" xml:space="preserve">
<style type="text/css">
	.st0{fill:none;}
	.st1{fill:#DDDDDD;}
</style>
<path class="st0" d="M0,0h16v16H0V0z"/>
<path class="st1" d="M6,7.3H4.7v1.3H6V7.3z M8.7,7.3H7.3v1.3h1.3V7.3z M11.3,7.3H10v1.3h1.3V7.3z M12.7,2.7H12V1.3h-1.3v1.3H5.3V1.3
	H4v1.3H3.3C2.6,2.7,2,3.3,2,4v9.3c0,0.7,0.6,1.3,1.3,1.3h9.3c0.7,0,1.3-0.6,1.3-1.3V4C14,3.3,13.4,2.7,12.7,2.7z M12.7,13.3H3.3V6
	h9.3V13.3z"/>
</svg>
