<?xml version="1.0" encoding="utf-8"?>
<!-- Generator: Adobe Illustrator 25.4.1, SVG Export Plug-In . SVG Version: 6.00 Build 0)  -->
<svg version="1.1" id="레이어_1" xmlns="http://www.w3.org/2000/svg" xmlns:xlink="http://www.w3.org/1999/xlink" x="0px"
	 y="0px" viewBox="0 0 219.4 69.4" style="enable-background:new 0 0 219.4 69.4;" xml:space="preserve">
<style type="text/css">
	.st0{fill:#AAAAAA;}
</style>
<path class="st0" d="M71.9,14.3h5.4v29.9h-5.4V14.3z M91.1,44.2c-1.9-6.7-7.9-12.3-13.7-15.2l12.5-14.6h6.2L84.2,28.1
	c5,2.4,11.3,9.8,12.2,16.1H91.1z"/>
<path class="st0" d="M97.9,30.4V28c0-9.6,5.4-14.1,14-14.1c8.3,0,14.1,4.1,14.1,14.1v2.5c0,9.7-5.7,14.1-14.1,14.1
	S97.9,40.4,97.9,30.4z M120.1,31.1v-3.2c0-6.5-2.3-9.8-8.3-9.8c-5.5,0-8.2,3.3-8.2,9.2v3.2c0,6.7,2.2,9.9,8.3,9.9
	C117.2,40.4,120.2,37.1,120.1,31.1L120.1,31.1z"/>
<path class="st0" d="M130.7,14.3h5.5c5.1,4.7,10,13.8,11.4,22.5l7.7-22.5h7.4v29.9h-5.3V20.9l-8.1,23.3H144
	c-0.8-8.6-4.7-18.7-8.5-23v23h-4.7V14.3z"/>
<path class="st0" d="M170.7,44.2h-5.3l10.8-29.9h5.1c6.6,7.4,11.3,21,12.6,29.9h-5.6c-0.4-2.4-0.8-4.7-1.4-7H173L170.7,44.2z
	 M174.4,33h11.2c-1.7-5.4-4.1-10.5-6.7-13.5L174.4,33z"/>
<path class="st0" d="M202.9,38.2c0,1.3,0.5,1.6,1.7,1.6h14.8l-1.1,4.4h-15c-3.2,0-5.8-0.8-5.8-5.5V14.3h5.4L202.9,38.2z"/>
<path class="st0" d="M71.9,53.6H73c1.5,1.5,2.5,3.5,2.9,5.6l2-5.6h1.7v7.2h-1.1v-6l-2.1,6h-1.1c-0.2-2.2-1-4.3-2.3-6v6h-1L71.9,53.6
	z"/>
<path class="st0" d="M82.8,60.9c-1.3,0-2.1-0.5-2.1-1.7s0.7-1.6,2-1.6h0.6c0.6,0,1-0.2,1-0.7s-0.4-0.7-1.3-0.7h-1.7v-0.8h2
	c1.3,0,2.2,0.4,2.2,1.5v3.7c-0.8,0.2-1.5,0.3-2.3,0.3L82.8,60.9z M84.3,57.9c-0.2,0.3-0.6,0.4-1,0.4h-0.6c-0.6,0-1,0.2-1,0.8
	s0.5,0.9,1.1,0.9h0.3c0.4,0,0.8-0.1,1.2-0.2L84.3,57.9z"/>
<path class="st0" d="M86.7,55.4h1v0.8c0.5-0.6,1.3-1,2.1-0.8h0.4v0.9h-0.5c-1.2,0-1.9,0.5-1.9,1.1v3.4h-1L86.7,55.4z"/>
<path class="st0" d="M90.9,53.3H92v1h-1.1V53.3z M90.9,55.3h1v5.5h-1V55.3z"/>
<path class="st0" d="M93.5,55.4h1v0.5c0.7-0.4,1.5-0.6,2.3-0.6c1,0,1.7,0.5,1.7,1.5v4h-1.1v-3.8c0-0.7-0.3-1-1.2-1
	c-0.6,0-1.2,0.2-1.7,0.6v4.1h-1L93.5,55.4z"/>
<path class="st0" d="M102,60.8c-1.9,0-2.7-0.8-2.7-2.5V58c0-1.8,0.9-2.6,2.5-2.6c1.8,0,2.3,0.8,2.3,2.6v0.5h-3.8
	c0.1,1.4,0.6,1.6,1.8,1.6h1.6l-0.3,0.8H102z M100.4,57.7h2.7c0-1.3-0.3-1.6-1.3-1.6C101,56.1,100.5,56.4,100.4,57.7z"/>
<path class="st0" d="M107.6,60.8V60h2.1c1.2,0,1.8-0.4,1.8-1.2s-0.4-0.9-1.2-1.1l-1-0.2c-1-0.1-1.8-1-1.8-2c0-1.2,1-1.9,2.6-1.9h2.3
	l-0.2,0.9h-2.1c-0.9,0-1.5,0.3-1.5,1s0.3,0.9,1.2,1.1l1,0.2c1,0.3,1.8,0.6,1.8,1.9s-0.9,2.1-2.8,2.1L107.6,60.8z"/>
<path class="st0" d="M116.1,60.8c-1.9,0-2.7-0.8-2.7-2.5V58c0-1.8,0.9-2.6,2.5-2.6c1.8,0,2.3,0.8,2.3,2.6v0.5h-3.7
	c0.1,1.4,0.6,1.6,1.8,1.6h1.6l-0.3,0.8H116.1z M114.5,57.7h2.7c0-1.3-0.3-1.6-1.3-1.6C115.1,56.1,114.6,56.4,114.5,57.7z"/>
<path class="st0" d="M119.3,55.4h1v0.8c0.5-0.6,1.3-1,2.1-0.8h0.4v0.9h-0.5c-1.2,0-1.9,0.5-1.9,1.1v3.4h-1L119.3,55.4z"/>
<path class="st0" d="M124.7,60.8l-1.7-5.4h1.2l1.3,4.5h0.4c0.3,0,0.6-0.2,0.7-0.7l1.1-3.8h1.1l-1.2,3.9c-0.4,1.4-0.7,1.6-1.8,1.6
	L124.7,60.8z"/>
<path class="st0" d="M129.7,53.3h1.1v1h-1.1V53.3z M129.7,55.3h1v5.5h-1V55.3z"/>
<path class="st0" d="M134.7,60.8c-1.8,0-2.8-0.8-2.8-2.6V58c-0.1-1.3,0.8-2.5,2.2-2.7c0.2,0,0.4,0,0.6,0h1.4l-0.2,0.8h-1.1
	c-0.8-0.1-1.6,0.5-1.7,1.3c0,0.1,0,0.3,0,0.4v0.3c0,1.4,0.7,1.8,1.9,1.8h1.3l-0.2,0.8L134.7,60.8z"/>
<path class="st0" d="M139.5,60.8c-1.9,0-2.7-0.8-2.7-2.5V58c0-1.8,0.9-2.6,2.5-2.6c1.8,0,2.3,0.8,2.3,2.6v0.5h-3.8
	c0.1,1.4,0.6,1.6,1.8,1.6h1.6l-0.3,0.8H139.5z M137.9,57.7h2.7c0-1.3-0.3-1.6-1.3-1.6C138.5,56.1,138,56.4,137.9,57.7L137.9,57.7z"
	/>
<path class="st0" d="M145,57.5v-0.6c-0.2-1.6,0.9-3.2,2.6-3.4c0.3,0,0.5,0,0.8,0c2,0,3.4,1,3.4,3.4v0.6c0.2,1.7-1,3.2-2.7,3.4
	c-0.2,0-0.5,0-0.7,0C146.4,60.9,145,59.9,145,57.5z M150.6,57.6v-0.8c0-1.7-0.6-2.5-2.2-2.5s-2.2,0.9-2.2,2.5v0.8
	c0,1.7,0.6,2.6,2.2,2.6C149.8,60.1,150.6,59.2,150.6,57.6z"/>
<path class="st0" d="M153,55.4h1v0.5c0.7-0.4,1.4-0.6,2.2-0.6c1,0,1.6,0.5,1.6,1.5v4h-1.1v-3.8c0-0.7-0.3-1-1.2-1
	c-0.6,0-1.2,0.2-1.6,0.6v4.1h-1V55.4z"/>
<path class="st0" d="M159.2,53.1h1v7.7h-1V53.1z"/>
<path class="st0" d="M161.8,53.3h1.1v1h-1.1V53.3z M161.8,55.3h1v5.5h-1V55.3z"/>
<path class="st0" d="M164.3,55.4h1v0.5c0.7-0.4,1.5-0.6,2.2-0.6c1,0,1.6,0.5,1.6,1.5v4h-1v-3.7c0-0.7-0.3-1-1.2-1
	c-0.6,0-1.2,0.2-1.6,0.6v4.1h-1L164.3,55.4z"/>
<path class="st0" d="M172.8,60.8c-1.9,0-2.7-0.8-2.7-2.5V58c0-1.8,0.9-2.6,2.5-2.6c1.8,0,2.3,0.8,2.3,2.6v0.5h-3.8
	c0.1,1.4,0.6,1.6,1.8,1.6h1.6l-0.3,0.8H172.8z M171.2,57.7h2.7c0-1.3-0.3-1.6-1.3-1.6C171.8,56.1,171.3,56.4,171.2,57.7z"/>
<path class="st0" d="M178.7,53.6h3.1c1.7,0,2.4,0.8,2.4,2.3s-0.9,2.3-2.4,2.3h-2v2.7h-1.1L178.7,53.6z M181.6,57.3
	c1.1,0,1.4-0.5,1.4-1.5s-0.3-1.5-1.4-1.5h-1.8v2.9H181.6z"/>
<path class="st0" d="M185.3,53.1h1v7.7h-1V53.1z"/>
<path class="st0" d="M189.5,60.9c-1.3,0-2.1-0.5-2.1-1.7s0.7-1.6,2-1.6h0.6c0.6,0,1-0.2,1-0.7s-0.4-0.7-1.3-0.7H188v-0.8h1.9
	c1.4,0,2.1,0.4,2.1,1.5v3.7c-0.8,0.2-1.5,0.3-2.3,0.3L189.5,60.9z M191.1,57.9c-0.2,0.3-0.6,0.4-1,0.4h-0.6c-0.6,0-1,0.2-1,0.8
	s0.5,0.9,1.1,0.9h0.3c0.4,0,0.8-0.1,1.2-0.2L191.1,57.9z"/>
<path class="st0" d="M195.3,60.8c-0.9,0-1.5-0.3-1.5-1.3v-3.4h-0.9v-0.8h0.9v-1.3h1v1.3h1.7l-0.2,0.8h-1.5v3.2
	c0,0.6,0.2,0.8,0.9,0.8h0.9l-0.2,0.8L195.3,60.8z"/>
<path class="st0" d="M198,56.2h-0.9v-0.8h0.9v-0.7c0-1.1,0.7-1.6,1.7-1.6h1.1l-0.3,0.7h-0.5c-0.7,0-1,0.2-1,1v0.6h1.7l-0.3,0.8h-1.5
	v4.6h-1L198,56.2z"/>
<path class="st0" d="M201.2,58.3v-0.4c-0.1-1.4,1-2.5,2.3-2.6c0.1,0,0.2,0,0.3,0c1.3-0.2,2.5,0.7,2.7,2c0,0.2,0,0.4,0,0.6v0.4
	c0.1,1.4-0.9,2.6-2.3,2.7c-0.1,0-0.3,0-0.4,0c-1.3,0.2-2.5-0.8-2.7-2.1C201.2,58.7,201.2,58.5,201.2,58.3z M205.4,58.3v-0.5
	c0-1.6-0.7-1.9-1.6-1.9s-1.6,0.5-1.6,1.8v0.5c0,1.5,0.7,1.9,1.6,1.9S205.4,59.7,205.4,58.3L205.4,58.3z"/>
<path class="st0" d="M207.6,55.4h1v0.8c0.5-0.6,1.3-1,2.1-0.8h0.4v0.9h-0.5c-1.2,0-1.9,0.5-1.9,1.1v3.4h-1L207.6,55.4z"/>
<path class="st0" d="M211.8,55.4h1v0.4c0.6-0.3,1.2-0.5,1.8-0.5c0.5-0.1,1,0.2,1.3,0.6c0.6-0.4,1.3-0.6,2-0.6
	c0.7-0.1,1.4,0.4,1.5,1.1c0,0.1,0,0.2,0,0.4v4.1h-1v-3.7c0-0.7-0.2-0.9-1-0.9c-0.5,0-0.9,0.2-1.3,0.4c0,0.1,0,0.2,0,0.4v3.9h-1v-3.7
	c0-0.8-0.2-1-1-1c-0.4,0-0.9,0.2-1.2,0.4v4.3h-1L211.8,55.4z"/>
<path class="st0" d="M31.1,66.4c-17.7-3-18.5-25.7-18-31.8c1.3-17.1,7.3-27.2,11.2-32.2C17.6,9.8,0,30.5,0,42.5
	c0,14.8,12,26.8,26.8,26.8c5.1,0,10.2-1.5,14.5-4.2C38.1,66.6,34.6,67,31.1,66.4z"/>
<path class="st0" d="M48,47.7c0.7-4-2-7.8-6-8.4s-7.8,2-8.4,6c-0.7,4,2,7.7,6,8.4C43.5,54.3,47.3,51.6,48,47.7z"/>
<path class="st0" d="M27.2,22.4c2.1,3.2,9.8,7.6,14.3,10.2c5.8,3.5,11.8,9.4,10.1,19.2c-0.1,0.8-0.3,1.5-0.5,2.3
	c1.8-3.6,2.7-7.6,2.7-11.7C53.7,28.6,30.2,3.2,27.2,0C23.8,6.3,22.1,14.5,27.2,22.4z"/>
</svg>
