<svg xmlns="http://www.w3.org/2000/svg" viewBox="0 0 64.73 64.73"><defs><style>.cls-1{fill:none;}.cls-2{fill:#00a89c;}</style></defs><g id="레이어_2" data-name="레이어 2"><rect class="cls-1" width="64.73" height="64.73"/><polygon points="36.76 51.81 14.66 51.81 14.66 12.92 46.96 12.92 46.96 28.88 44.46 28.88 44.46 15.42 17.16 15.42 17.16 49.31 36.76 49.31 36.76 51.81"/><rect x="24.33" y="21.22" width="13.82" height="2.5"/><rect x="24.33" y="27.48" width="13.82" height="2.5"/><rect x="24.33" y="33.73" width="4.43" height="2.5"/><rect x="24.33" y="40.08" width="3.68" height="2.5"/><path class="cls-2" d="M37.57,48.46A10.18,10.18,0,1,1,47.75,38.28,10.19,10.19,0,0,1,37.57,48.46Zm0-17.86a7.68,7.68,0,1,0,7.68,7.68A7.69,7.69,0,0,0,37.57,30.6Z"/><rect class="cls-2" x="45.61" y="43.78" width="2.5" height="6.55" transform="translate(-19.54 47.4) rotate(-45.42)"/><polygon class="cls-2" points="37.57 41.88 33.14 37.67 34.86 35.85 37.57 38.43 40.29 35.85 42.01 37.67 37.57 41.88"/></g></svg>