<svg xmlns="http://www.w3.org/2000/svg" viewBox="0 0 64.73 64.73"><defs><style>.cls-1{fill:none;}.cls-2{fill:#00a89c;}</style></defs><g id="레이어_2" data-name="레이어 2"><rect class="cls-1" width="64.73" height="64.73"/><path class="cls-2" d="M50.11,40.5l-1.87-1.66A10.3,10.3,0,0,0,50.89,32c0-5.89-5.12-10.68-11.4-10.68S28.08,26.11,28.08,32a9.48,9.48,0,0,0,.15,1.69l-2.47.42A12.35,12.35,0,0,1,25.58,32c0-7.27,6.24-13.18,13.91-13.18S53.39,24.73,53.39,32A12.8,12.8,0,0,1,50.11,40.5Z"/><path class="cls-2" d="M45.86,18.5l-1.71-1.83,1.31-1.22a6.6,6.6,0,0,0-4.67.1l-.55.25-.54-.27A7.2,7.2,0,0,0,35,15l1.43,1.75-1.94,1.58L30.88,14l1.41-.7a10.42,10.42,0,0,1,8-.23,8.94,8.94,0,0,1,8,1.08l1.26.88Z"/><path d="M39.76,43.63H32.35v-2.5h7.3a1.46,1.46,0,0,0,1.5-1.47v-.14c.1-1-.84-1.28-1.17-1.37H33.7l-3.83-3H25.52l-3.63,2.34H17.94V35h3.22l3.63-2.34h5.95l3.83,3,5.79,0a3.82,3.82,0,0,1,3.29,4,4,4,0,0,1-3.83,3.91Z"/><path d="M40.57,51.75H17.94v-2.5H40.06l12-5.09c1.69-1.18,1.08-2.29,1-2.33-.85-1.6-1.78-1.18-1.89-1.13l-.15.07-5.68,2-.84-2.35,5.61-2c1.31-.62,3.69-.54,5.14,2.17.62,1.07,1,3.69-1.94,5.69l-.21.12Z"/><polygon points="15.91 52.38 8.94 52.38 8.94 49.88 13.41 49.88 13.41 35.8 8.94 35.8 8.94 33.3 15.91 33.3 15.91 52.38"/></g></svg>