<svg xmlns="http://www.w3.org/2000/svg" viewBox="0 0 64.73 64.73"><defs><style>.cls-1{fill:none;}.cls-2{fill:#00a89c;}</style></defs><g id="레이어_2" data-name="레이어 2"><rect class="cls-1" width="64.73" height="64.73"/><polygon points="43.17 51.81 19.26 51.81 19.26 49.31 40.67 49.31 40.67 15.42 13.37 15.42 13.37 50.56 10.87 50.56 10.87 12.92 43.17 12.92 43.17 51.81"/><rect class="cls-2" x="20.54" y="21.22" width="13.82" height="2.5"/><rect class="cls-2" x="20.54" y="27.48" width="13.82" height="2.5"/><rect class="cls-2" x="20.54" y="33.73" width="13.82" height="2.5"/><rect class="cls-2" x="20.54" y="40.08" width="13.82" height="2.5"/><path d="M53.87,51.43H46V24.87h7.91Zm-5.41-2.5h2.91V27.37H48.46Z"/><path d="M52.67,27.12H47.42V20.75h5.25Zm-3.25-2h1.25V22.75H49.42Z"/><rect class="cls-2" x="48.91" y="17.27" width="2" height="3.46"/></g></svg>